<svg width="60" height="60" viewBox="0 0 60 60" fill="none" xmlns="http://www.w3.org/2000/svg">
<g clip-path="url(#clip0_1_154)">
<rect x="52.5" y="52.5" width="7.5" height="7.5" fill="white"/>
<rect x="45" y="52.5" width="7.5" height="7.5" fill="#A6026C"/>
<rect x="37.5" y="52.5" width="7.5" height="7.5" fill="white"/>
<rect x="30" y="52.5" width="7.5" height="7.5" fill="white"/>
<rect x="22.5" y="52.5" width="7.5" height="7.5" fill="#F6B9AA"/>
<rect x="15" y="52.5" width="7.5" height="7.5" fill="#A6026C"/>
<rect x="7.5" y="52.5" width="7.5" height="7.5" fill="#F6B9AA"/>
<rect y="52.5" width="7.5" height="7.5" fill="#FC3903"/>
<rect x="52.5" y="45" width="7.5" height="7.5" fill="#FC3903"/>
<rect x="45" y="45" width="7.5" height="7.5" fill="white"/>
<rect x="37.5" y="45" width="7.5" height="7.5" fill="#F6B9AA"/>
<rect x="30" y="45" width="7.5" height="7.5" fill="white"/>
<rect x="22.5" y="45" width="7.5" height="7.5" fill="#F6B9AA"/>
<rect x="15" y="45" width="7.5" height="7.5" fill="#A6026C"/>
<rect x="7.5" y="45" width="7.5" height="7.5" fill="#FC3903"/>
<rect y="45" width="7.5" height="7.5" fill="#A6026C"/>
<rect x="52.5" y="37.5" width="7.5" height="7.5" fill="white"/>
<rect x="45" y="37.5" width="7.5" height="7.5" fill="#F6B9AA"/>
<rect x="37.5" y="37.5" width="7.5" height="7.5" fill="white"/>
<rect x="30" y="37.5" width="7.5" height="7.5" fill="#F6B9AA"/>
<rect x="22.5" y="37.5" width="7.5" height="7.5" fill="white"/>
<rect x="15" y="37.5" width="7.5" height="7.5" fill="#FC3903"/>
<rect x="7.5" y="37.5" width="7.5" height="7.5" fill="white"/>
<rect y="37.5" width="7.5" height="7.5" fill="#FC3903"/>
<rect x="52.5" y="30" width="7.5" height="7.5" fill="#FC3903"/>
<rect x="45" y="30" width="7.5" height="7.5" fill="white"/>
<rect x="37.5" y="30" width="7.5" height="7.5" fill="#F6B9AA"/>
<rect x="30" y="30" width="7.5" height="7.5" fill="white"/>
<rect x="22.5" y="30" width="7.5" height="7.5" fill="white"/>
<rect x="15" y="30" width="7.5" height="7.5" fill="#F6B9AA"/>
<rect x="7.5" y="30" width="7.5" height="7.5" fill="white"/>
<rect y="30" width="7.5" height="7.5" fill="#F6B9AA"/>
<rect x="52.5" y="22.5" width="7.5" height="7.5" fill="#A6026C"/>
<rect x="45" y="22.5" width="7.5" height="7.5" fill="#FC3903"/>
<rect x="37.5" y="22.5" width="7.5" height="7.5" fill="#A6026C"/>
<rect x="30" y="22.5" width="7.5" height="7.5" fill="#FC3903"/>
<rect x="22.5" y="22.5" width="7.5" height="7.5" fill="white"/>
<rect x="15" y="22.5" width="7.5" height="7.5" fill="white"/>
<rect x="7.5" y="22.5" width="7.5" height="7.5" fill="#F6B9AA"/>
<rect y="22.5" width="7.5" height="7.5" fill="#A6026C"/>
<rect x="52.5" y="15" width="7.5" height="7.5" fill="#A6026C"/>
<rect x="45" y="15" width="7.5" height="7.5" fill="#F6B9AA"/>
<rect x="37.5" y="15" width="7.5" height="7.5" fill="#F6B9AA"/>
<rect x="30" y="15" width="7.5" height="7.5" fill="#F6B9AA"/>
<rect x="22.5" y="15" width="7.5" height="7.5" fill="white"/>
<rect x="15" y="15" width="7.5" height="7.5" fill="#A6026C"/>
<rect x="7.5" y="15" width="7.5" height="7.5" fill="white"/>
<rect y="15" width="7.5" height="7.5" fill="#FC3903"/>
<rect x="52.5" y="7.5" width="7.5" height="7.5" fill="#FC3903"/>
<rect x="45" y="7.5" width="7.5" height="7.5" fill="#A6026C"/>
<rect x="37.5" y="7.5" width="7.5" height="7.5" fill="#A6026C"/>
<rect x="30" y="7.5" width="7.5" height="7.5" fill="#F6B9AA"/>
<rect x="22.5" y="7.5" width="7.5" height="7.5" fill="#F6B9AA"/>
<rect x="15" y="7.5" width="7.5" height="7.5" fill="white"/>
<rect x="7.5" y="7.5" width="7.5" height="7.5" fill="#F6B9AA"/>
<rect y="7.5" width="7.5" height="7.5" fill="#FC3903"/>
<rect x="52.5" width="7.5" height="7.5" fill="#FC3903"/>
<rect x="45" width="7.5" height="7.5" fill="#A6026C"/>
<rect x="37.5" width="7.5" height="7.5" fill="#A6026C"/>
<rect x="30" width="7.5" height="7.5" fill="#FC3903"/>
<rect x="22.5" width="7.5" height="7.5" fill="#F6B9AA"/>
<rect x="15" width="7.5" height="7.5" fill="#A6026C"/>
<rect x="7.5" width="7.5" height="7.5" fill="#FC3903"/>
<rect width="7.5" height="7.5" fill="#A6026C"/>
</g>
<defs>
<clipPath id="clip0_1_154">
<rect width="60" height="60" rx="30" fill="white"/>
</clipPath>
</defs>
</svg>
